<?xml version="1.0" standalone="no"?>
<!DOCTYPE svg PUBLIC "-//W3C//DTD SVG 20010904//EN"
 "http://www.w3.org/TR/2001/REC-SVG-20010904/DTD/svg10.dtd">
<svg version="1.0" xmlns="http://www.w3.org/2000/svg"
 width="300.000000pt" height="300.000000pt" viewBox="0 0 300.000000 300.000000"
 preserveAspectRatio="xMidYMid meet">
<metadata>
Created by potrace 1.10, written by Peter Selinger 2001-2011
</metadata>
<g transform="translate(0.000000,300.000000) scale(0.100000,-0.100000)"
fill="#000000" stroke="none">
<path d="M1409 1972 c-192 -100 -184 -365 14 -469 39 -20 136 -22 191 -3 49
16 121 81 149 135 30 56 30 164 0 221 -26 48 -92 110 -139 130 -18 8 -62 14
-98 14 -50 0 -75 -6 -117 -28z m228 -10 c46 -24 99 -81 119 -128 20 -47 17
-141 -5 -189 -24 -52 -99 -121 -147 -134 -102 -28 -196 -2 -259 72 -114 133
-61 332 104 394 48 18 137 11 188 -15z"/>
<path d="M1157 1505 c-58 -22 -110 -68 -141 -124 -74 -138 -25 -297 114 -369
59 -31 71 -34 132 -29 145 10 244 104 255 240 7 78 -9 134 -50 189 -52 68
-114 100 -200 104 -47 3 -85 -1 -110 -11z m197 -19 c112 -47 179 -185 147
-303 -17 -61 -68 -123 -130 -155 -130 -68 -293 -14 -352 117 -21 45 -25 147
-8 192 29 77 103 144 182 164 39 10 120 2 161 -15z"/>
<path d="M1583 1463 c-16 -3 -24 -14 -29 -41 -9 -49 2 -422 13 -433 5 -5 109
-8 234 -7 l224 3 3 234 c2 181 -1 236 -10 243 -13 8 -394 9 -435 1z m437 -238
l0 -225 -225 0 -225 0 0 225 0 225 225 0 225 0 0 -225z"/>
</g>
</svg>
